<mxfile host="app.diagrams.net" agent="Mozilla/5.0 (Windows NT 10.0; Win64; x64; rv:130.0) Gecko/20100101 Firefox/130.0" version="24.7.14">
  <diagram name="Страница-1" id="tpQXHwz-FdJpnM3Rr1b0">
    <mxGraphModel dx="1780" dy="3032" grid="1" gridSize="10" guides="1" tooltips="1" connect="1" arrows="1" fold="1" page="1" pageScale="1" pageWidth="827" pageHeight="1169" math="0" shadow="0">
      <root>
        <mxCell id="0" />
        <mxCell id="1" parent="0" />
        <mxCell id="v1GEBAYR39GBqrKkGxhv-24" value="" style="edgeStyle=orthogonalEdgeStyle;rounded=0;orthogonalLoop=1;jettySize=auto;html=1;" edge="1" parent="1" source="v1GEBAYR39GBqrKkGxhv-1" target="v1GEBAYR39GBqrKkGxhv-3">
          <mxGeometry relative="1" as="geometry" />
        </mxCell>
        <mxCell id="v1GEBAYR39GBqrKkGxhv-56" value="&lt;div&gt;&lt;font style=&quot;font-size: 24px;&quot;&gt;ε&lt;/font&gt;&lt;/div&gt;" style="edgeLabel;html=1;align=center;verticalAlign=middle;resizable=0;points=[];" vertex="1" connectable="0" parent="v1GEBAYR39GBqrKkGxhv-24">
          <mxGeometry x="0.018" y="-2" relative="1" as="geometry">
            <mxPoint y="-32" as="offset" />
          </mxGeometry>
        </mxCell>
        <mxCell id="v1GEBAYR39GBqrKkGxhv-1" value="" style="ellipse;whiteSpace=wrap;html=1;" vertex="1" parent="1">
          <mxGeometry x="160" y="260" width="120" height="80" as="geometry" />
        </mxCell>
        <mxCell id="v1GEBAYR39GBqrKkGxhv-2" value="" style="endArrow=classic;html=1;rounded=0;entryX=0.011;entryY=0.664;entryDx=0;entryDy=0;entryPerimeter=0;" edge="1" parent="1" target="v1GEBAYR39GBqrKkGxhv-1">
          <mxGeometry width="50" height="50" relative="1" as="geometry">
            <mxPoint x="110" y="340" as="sourcePoint" />
            <mxPoint x="160" y="290" as="targetPoint" />
          </mxGeometry>
        </mxCell>
        <mxCell id="v1GEBAYR39GBqrKkGxhv-3" value="" style="ellipse;whiteSpace=wrap;html=1;" vertex="1" parent="1">
          <mxGeometry x="354" y="260" width="120" height="80" as="geometry" />
        </mxCell>
        <mxCell id="v1GEBAYR39GBqrKkGxhv-32" value="" style="edgeStyle=orthogonalEdgeStyle;rounded=0;orthogonalLoop=1;jettySize=auto;html=1;" edge="1" parent="1" source="v1GEBAYR39GBqrKkGxhv-4" target="v1GEBAYR39GBqrKkGxhv-8">
          <mxGeometry relative="1" as="geometry" />
        </mxCell>
        <mxCell id="v1GEBAYR39GBqrKkGxhv-4" value="" style="ellipse;whiteSpace=wrap;html=1;" vertex="1" parent="1">
          <mxGeometry x="570" y="27.5" width="120" height="80" as="geometry" />
        </mxCell>
        <mxCell id="v1GEBAYR39GBqrKkGxhv-34" value="" style="edgeStyle=orthogonalEdgeStyle;rounded=0;orthogonalLoop=1;jettySize=auto;html=1;" edge="1" parent="1" source="v1GEBAYR39GBqrKkGxhv-5" target="v1GEBAYR39GBqrKkGxhv-9">
          <mxGeometry relative="1" as="geometry" />
        </mxCell>
        <mxCell id="v1GEBAYR39GBqrKkGxhv-5" value="" style="ellipse;whiteSpace=wrap;html=1;" vertex="1" parent="1">
          <mxGeometry x="570" y="187.5" width="120" height="80" as="geometry" />
        </mxCell>
        <mxCell id="v1GEBAYR39GBqrKkGxhv-36" value="" style="edgeStyle=orthogonalEdgeStyle;rounded=0;orthogonalLoop=1;jettySize=auto;html=1;" edge="1" parent="1" source="v1GEBAYR39GBqrKkGxhv-6" target="v1GEBAYR39GBqrKkGxhv-10">
          <mxGeometry relative="1" as="geometry" />
        </mxCell>
        <mxCell id="v1GEBAYR39GBqrKkGxhv-6" value="" style="ellipse;whiteSpace=wrap;html=1;" vertex="1" parent="1">
          <mxGeometry x="570" y="347.5" width="120" height="80" as="geometry" />
        </mxCell>
        <mxCell id="v1GEBAYR39GBqrKkGxhv-39" value="" style="edgeStyle=orthogonalEdgeStyle;rounded=0;orthogonalLoop=1;jettySize=auto;html=1;" edge="1" parent="1" source="v1GEBAYR39GBqrKkGxhv-7" target="v1GEBAYR39GBqrKkGxhv-11">
          <mxGeometry relative="1" as="geometry" />
        </mxCell>
        <mxCell id="v1GEBAYR39GBqrKkGxhv-7" value="" style="ellipse;whiteSpace=wrap;html=1;" vertex="1" parent="1">
          <mxGeometry x="570" y="620" width="120" height="80" as="geometry" />
        </mxCell>
        <mxCell id="v1GEBAYR39GBqrKkGxhv-33" value="" style="edgeStyle=orthogonalEdgeStyle;rounded=0;orthogonalLoop=1;jettySize=auto;html=1;" edge="1" parent="1" source="v1GEBAYR39GBqrKkGxhv-8" target="v1GEBAYR39GBqrKkGxhv-12">
          <mxGeometry relative="1" as="geometry" />
        </mxCell>
        <mxCell id="v1GEBAYR39GBqrKkGxhv-81" value="&lt;font style=&quot;font-size: 24px;&quot;&gt;&lt;span style=&quot;line-height: 107%; font-family: &amp;quot;Times New Roman&amp;quot;, serif;&quot; lang=&quot;EN-US&quot;&gt;Bin&lt;/span&gt;&lt;/font&gt;" style="edgeLabel;html=1;align=center;verticalAlign=middle;resizable=0;points=[];" vertex="1" connectable="0" parent="v1GEBAYR39GBqrKkGxhv-33">
          <mxGeometry x="0.0333" relative="1" as="geometry">
            <mxPoint x="-1" y="23" as="offset" />
          </mxGeometry>
        </mxCell>
        <mxCell id="v1GEBAYR39GBqrKkGxhv-8" value="" style="ellipse;whiteSpace=wrap;html=1;" vertex="1" parent="1">
          <mxGeometry x="740" y="27.5" width="120" height="80" as="geometry" />
        </mxCell>
        <mxCell id="v1GEBAYR39GBqrKkGxhv-35" value="" style="edgeStyle=orthogonalEdgeStyle;rounded=0;orthogonalLoop=1;jettySize=auto;html=1;" edge="1" parent="1" source="v1GEBAYR39GBqrKkGxhv-9" target="v1GEBAYR39GBqrKkGxhv-13">
          <mxGeometry relative="1" as="geometry" />
        </mxCell>
        <mxCell id="v1GEBAYR39GBqrKkGxhv-82" value="&lt;font style=&quot;font-size: 24px;&quot; face=&quot;Times New Roman&quot;&gt;Oct&lt;/font&gt;" style="edgeLabel;html=1;align=center;verticalAlign=middle;resizable=0;points=[];" vertex="1" connectable="0" parent="v1GEBAYR39GBqrKkGxhv-35">
          <mxGeometry x="0.1222" y="-2" relative="1" as="geometry">
            <mxPoint x="-3" y="21" as="offset" />
          </mxGeometry>
        </mxCell>
        <mxCell id="v1GEBAYR39GBqrKkGxhv-51" style="edgeStyle=orthogonalEdgeStyle;rounded=0;orthogonalLoop=1;jettySize=auto;html=1;exitX=1;exitY=0.5;exitDx=0;exitDy=0;entryX=0;entryY=0;entryDx=0;entryDy=0;curved=1;" edge="1" parent="1" source="v1GEBAYR39GBqrKkGxhv-9" target="v1GEBAYR39GBqrKkGxhv-5">
          <mxGeometry relative="1" as="geometry">
            <Array as="points">
              <mxPoint x="880" y="228" />
              <mxPoint x="880" y="120" />
              <mxPoint x="588" y="120" />
            </Array>
          </mxGeometry>
        </mxCell>
        <mxCell id="v1GEBAYR39GBqrKkGxhv-9" value="" style="ellipse;whiteSpace=wrap;html=1;" vertex="1" parent="1">
          <mxGeometry x="740" y="187.5" width="120" height="80" as="geometry" />
        </mxCell>
        <mxCell id="v1GEBAYR39GBqrKkGxhv-37" value="" style="edgeStyle=orthogonalEdgeStyle;rounded=0;orthogonalLoop=1;jettySize=auto;html=1;" edge="1" parent="1" source="v1GEBAYR39GBqrKkGxhv-10" target="v1GEBAYR39GBqrKkGxhv-14">
          <mxGeometry relative="1" as="geometry" />
        </mxCell>
        <mxCell id="v1GEBAYR39GBqrKkGxhv-79" value="&lt;font style=&quot;font-size: 24px;&quot;&gt;&lt;span style=&quot;line-height: 107%; font-family: &amp;quot;Times New Roman&amp;quot;, serif;&quot; lang=&quot;EN-US&quot;&gt;Letters&lt;/span&gt;&lt;/font&gt;" style="edgeLabel;html=1;align=center;verticalAlign=middle;resizable=0;points=[];" vertex="1" connectable="0" parent="v1GEBAYR39GBqrKkGxhv-37">
          <mxGeometry x="-0.0381" y="-4" relative="1" as="geometry">
            <mxPoint y="19" as="offset" />
          </mxGeometry>
        </mxCell>
        <mxCell id="v1GEBAYR39GBqrKkGxhv-52" style="edgeStyle=orthogonalEdgeStyle;rounded=0;orthogonalLoop=1;jettySize=auto;html=1;exitX=1;exitY=0.5;exitDx=0;exitDy=0;entryX=0;entryY=0;entryDx=0;entryDy=0;curved=1;" edge="1" parent="1" source="v1GEBAYR39GBqrKkGxhv-10" target="v1GEBAYR39GBqrKkGxhv-6">
          <mxGeometry relative="1" as="geometry">
            <Array as="points">
              <mxPoint x="880" y="388" />
              <mxPoint x="880" y="290" />
              <mxPoint x="588" y="290" />
            </Array>
          </mxGeometry>
        </mxCell>
        <mxCell id="v1GEBAYR39GBqrKkGxhv-10" value="" style="ellipse;whiteSpace=wrap;html=1;" vertex="1" parent="1">
          <mxGeometry x="740" y="347.5" width="120" height="80" as="geometry" />
        </mxCell>
        <mxCell id="v1GEBAYR39GBqrKkGxhv-40" value="" style="edgeStyle=orthogonalEdgeStyle;rounded=0;orthogonalLoop=1;jettySize=auto;html=1;" edge="1" parent="1" source="v1GEBAYR39GBqrKkGxhv-11" target="v1GEBAYR39GBqrKkGxhv-15">
          <mxGeometry relative="1" as="geometry" />
        </mxCell>
        <mxCell id="v1GEBAYR39GBqrKkGxhv-80" value="&lt;font style=&quot;font-size: 24px;&quot;&gt;&lt;span style=&quot;line-height: 107%; font-family: &amp;quot;Times New Roman&amp;quot;, serif;&quot; lang=&quot;EN-US&quot;&gt;Letters&lt;/span&gt;&lt;/font&gt;" style="edgeLabel;html=1;align=center;verticalAlign=middle;resizable=0;points=[];" vertex="1" connectable="0" parent="v1GEBAYR39GBqrKkGxhv-40">
          <mxGeometry x="0.1222" y="2" relative="1" as="geometry">
            <mxPoint x="-3" y="32" as="offset" />
          </mxGeometry>
        </mxCell>
        <mxCell id="v1GEBAYR39GBqrKkGxhv-54" style="edgeStyle=orthogonalEdgeStyle;rounded=0;orthogonalLoop=1;jettySize=auto;html=1;exitX=1;exitY=0.5;exitDx=0;exitDy=0;entryX=0;entryY=0;entryDx=0;entryDy=0;curved=1;" edge="1" parent="1" source="v1GEBAYR39GBqrKkGxhv-11" target="v1GEBAYR39GBqrKkGxhv-7">
          <mxGeometry relative="1" as="geometry">
            <Array as="points">
              <mxPoint x="880" y="660" />
              <mxPoint x="880" y="520" />
              <mxPoint x="588" y="520" />
            </Array>
          </mxGeometry>
        </mxCell>
        <mxCell id="v1GEBAYR39GBqrKkGxhv-11" value="" style="ellipse;whiteSpace=wrap;html=1;" vertex="1" parent="1">
          <mxGeometry x="740" y="620" width="120" height="80" as="geometry" />
        </mxCell>
        <mxCell id="v1GEBAYR39GBqrKkGxhv-12" value="" style="ellipse;whiteSpace=wrap;html=1;" vertex="1" parent="1">
          <mxGeometry x="920" y="27.5" width="120" height="80" as="geometry" />
        </mxCell>
        <mxCell id="v1GEBAYR39GBqrKkGxhv-13" value="" style="ellipse;whiteSpace=wrap;html=1;" vertex="1" parent="1">
          <mxGeometry x="920" y="187.5" width="120" height="80" as="geometry" />
        </mxCell>
        <mxCell id="v1GEBAYR39GBqrKkGxhv-38" value="" style="edgeStyle=orthogonalEdgeStyle;rounded=0;orthogonalLoop=1;jettySize=auto;html=1;" edge="1" parent="1" source="v1GEBAYR39GBqrKkGxhv-14" target="v1GEBAYR39GBqrKkGxhv-16">
          <mxGeometry relative="1" as="geometry" />
        </mxCell>
        <mxCell id="v1GEBAYR39GBqrKkGxhv-86" value="&lt;font style=&quot;font-size: 24px;&quot; face=&quot;Times New Roman&quot;&gt;Hex&lt;/font&gt;" style="edgeLabel;html=1;align=center;verticalAlign=middle;resizable=0;points=[];" vertex="1" connectable="0" parent="v1GEBAYR39GBqrKkGxhv-38">
          <mxGeometry x="0.1152" y="-2" relative="1" as="geometry">
            <mxPoint x="-3" y="21" as="offset" />
          </mxGeometry>
        </mxCell>
        <mxCell id="v1GEBAYR39GBqrKkGxhv-53" style="edgeStyle=orthogonalEdgeStyle;rounded=0;orthogonalLoop=1;jettySize=auto;html=1;exitX=1;exitY=1;exitDx=0;exitDy=0;entryX=0;entryY=1;entryDx=0;entryDy=0;curved=1;" edge="1" parent="1" source="v1GEBAYR39GBqrKkGxhv-14" target="v1GEBAYR39GBqrKkGxhv-10">
          <mxGeometry relative="1" as="geometry">
            <Array as="points">
              <mxPoint x="1032" y="470" />
              <mxPoint x="758" y="470" />
            </Array>
          </mxGeometry>
        </mxCell>
        <mxCell id="v1GEBAYR39GBqrKkGxhv-14" value="" style="ellipse;whiteSpace=wrap;html=1;" vertex="1" parent="1">
          <mxGeometry x="930" y="347.5" width="120" height="80" as="geometry" />
        </mxCell>
        <mxCell id="v1GEBAYR39GBqrKkGxhv-41" value="" style="edgeStyle=orthogonalEdgeStyle;rounded=0;orthogonalLoop=1;jettySize=auto;html=1;" edge="1" parent="1" source="v1GEBAYR39GBqrKkGxhv-15" target="v1GEBAYR39GBqrKkGxhv-17">
          <mxGeometry relative="1" as="geometry" />
        </mxCell>
        <mxCell id="v1GEBAYR39GBqrKkGxhv-15" value="" style="ellipse;whiteSpace=wrap;html=1;" vertex="1" parent="1">
          <mxGeometry x="920" y="620" width="120" height="80" as="geometry" />
        </mxCell>
        <mxCell id="v1GEBAYR39GBqrKkGxhv-16" value="" style="ellipse;whiteSpace=wrap;html=1;" vertex="1" parent="1">
          <mxGeometry x="1090" y="347.5" width="120" height="80" as="geometry" />
        </mxCell>
        <mxCell id="v1GEBAYR39GBqrKkGxhv-17" value="" style="ellipse;whiteSpace=wrap;html=1;" vertex="1" parent="1">
          <mxGeometry x="1090" y="620" width="120" height="80" as="geometry" />
        </mxCell>
        <mxCell id="v1GEBAYR39GBqrKkGxhv-18" value="" style="ellipse;whiteSpace=wrap;html=1;" vertex="1" parent="1">
          <mxGeometry x="1290" y="260" width="120" height="80" as="geometry" />
        </mxCell>
        <mxCell id="v1GEBAYR39GBqrKkGxhv-19" value="" style="ellipse;whiteSpace=wrap;html=1;" vertex="1" parent="1">
          <mxGeometry x="1580" y="260" width="120" height="80" as="geometry" />
        </mxCell>
        <mxCell id="v1GEBAYR39GBqrKkGxhv-20" value="" style="ellipse;whiteSpace=wrap;html=1;" vertex="1" parent="1">
          <mxGeometry x="1590" y="270" width="100" height="60" as="geometry" />
        </mxCell>
        <mxCell id="v1GEBAYR39GBqrKkGxhv-27" value="" style="endArrow=classic;html=1;rounded=0;entryX=0;entryY=0.5;entryDx=0;entryDy=0;exitX=1;exitY=0.5;exitDx=0;exitDy=0;" edge="1" parent="1" source="v1GEBAYR39GBqrKkGxhv-3" target="v1GEBAYR39GBqrKkGxhv-5">
          <mxGeometry width="50" height="50" relative="1" as="geometry">
            <mxPoint x="480" y="290" as="sourcePoint" />
            <mxPoint x="530" y="240" as="targetPoint" />
          </mxGeometry>
        </mxCell>
        <mxCell id="v1GEBAYR39GBqrKkGxhv-58" value="&lt;font face=&quot;Times New Roman&quot; style=&quot;font-size: 24px;&quot;&gt;Oct_Digit&lt;/font&gt;" style="edgeLabel;html=1;align=center;verticalAlign=middle;resizable=0;points=[];" vertex="1" connectable="0" parent="v1GEBAYR39GBqrKkGxhv-27">
          <mxGeometry x="0.2102" y="-2" relative="1" as="geometry">
            <mxPoint x="177" y="-58" as="offset" />
          </mxGeometry>
        </mxCell>
        <mxCell id="v1GEBAYR39GBqrKkGxhv-28" value="" style="endArrow=classic;html=1;rounded=0;exitX=1;exitY=0.5;exitDx=0;exitDy=0;entryX=0;entryY=0.5;entryDx=0;entryDy=0;" edge="1" parent="1" source="v1GEBAYR39GBqrKkGxhv-3" target="v1GEBAYR39GBqrKkGxhv-4">
          <mxGeometry width="50" height="50" relative="1" as="geometry">
            <mxPoint x="470" y="180" as="sourcePoint" />
            <mxPoint x="520" y="130" as="targetPoint" />
          </mxGeometry>
        </mxCell>
        <mxCell id="v1GEBAYR39GBqrKkGxhv-57" value="&lt;font face=&quot;Times New Roman&quot; style=&quot;font-size: 24px;&quot;&gt;Bin_Digit&lt;/font&gt;" style="edgeLabel;html=1;align=center;verticalAlign=middle;resizable=0;points=[];" vertex="1" connectable="0" parent="v1GEBAYR39GBqrKkGxhv-28">
          <mxGeometry x="0.0286" y="-5" relative="1" as="geometry">
            <mxPoint x="182" y="-155" as="offset" />
          </mxGeometry>
        </mxCell>
        <mxCell id="v1GEBAYR39GBqrKkGxhv-29" value="" style="endArrow=classic;html=1;rounded=0;exitX=1;exitY=0.5;exitDx=0;exitDy=0;entryX=0;entryY=0.5;entryDx=0;entryDy=0;" edge="1" parent="1" source="v1GEBAYR39GBqrKkGxhv-3" target="v1GEBAYR39GBqrKkGxhv-6">
          <mxGeometry width="50" height="50" relative="1" as="geometry">
            <mxPoint x="440" y="430" as="sourcePoint" />
            <mxPoint x="490" y="380" as="targetPoint" />
          </mxGeometry>
        </mxCell>
        <mxCell id="v1GEBAYR39GBqrKkGxhv-59" value="&lt;font face=&quot;Times New Roman&quot; style=&quot;font-size: 24px;&quot;&gt;Digit_1_9&lt;/font&gt;" style="edgeLabel;html=1;align=center;verticalAlign=middle;resizable=0;points=[];" vertex="1" connectable="0" parent="v1GEBAYR39GBqrKkGxhv-29">
          <mxGeometry x="0.1019" y="-4" relative="1" as="geometry">
            <mxPoint x="185" y="8" as="offset" />
          </mxGeometry>
        </mxCell>
        <mxCell id="v1GEBAYR39GBqrKkGxhv-30" value="" style="endArrow=classic;html=1;rounded=0;exitX=1;exitY=0.5;exitDx=0;exitDy=0;entryX=0;entryY=0.5;entryDx=0;entryDy=0;" edge="1" parent="1" source="v1GEBAYR39GBqrKkGxhv-3" target="v1GEBAYR39GBqrKkGxhv-7">
          <mxGeometry width="50" height="50" relative="1" as="geometry">
            <mxPoint x="430" y="540" as="sourcePoint" />
            <mxPoint x="480" y="490" as="targetPoint" />
          </mxGeometry>
        </mxCell>
        <mxCell id="v1GEBAYR39GBqrKkGxhv-60" value="&lt;font face=&quot;Times New Roman&quot; style=&quot;font-size: 24px;&quot;&gt;Digit_0&lt;/font&gt;" style="edgeLabel;html=1;align=center;verticalAlign=middle;resizable=0;points=[];" vertex="1" connectable="0" parent="v1GEBAYR39GBqrKkGxhv-30">
          <mxGeometry x="0.0259" y="-1" relative="1" as="geometry">
            <mxPoint x="188" y="145" as="offset" />
          </mxGeometry>
        </mxCell>
        <mxCell id="v1GEBAYR39GBqrKkGxhv-42" value="" style="endArrow=classic;html=1;rounded=0;exitX=1;exitY=0.5;exitDx=0;exitDy=0;entryX=0;entryY=0.5;entryDx=0;entryDy=0;" edge="1" parent="1" source="v1GEBAYR39GBqrKkGxhv-12" target="v1GEBAYR39GBqrKkGxhv-18">
          <mxGeometry width="50" height="50" relative="1" as="geometry">
            <mxPoint x="1130" y="130" as="sourcePoint" />
            <mxPoint x="1180" y="80" as="targetPoint" />
          </mxGeometry>
        </mxCell>
        <mxCell id="v1GEBAYR39GBqrKkGxhv-43" value="" style="endArrow=classic;html=1;rounded=0;exitX=1;exitY=0.5;exitDx=0;exitDy=0;entryX=0;entryY=0.5;entryDx=0;entryDy=0;" edge="1" parent="1" source="v1GEBAYR39GBqrKkGxhv-13" target="v1GEBAYR39GBqrKkGxhv-18">
          <mxGeometry width="50" height="50" relative="1" as="geometry">
            <mxPoint x="1050" y="310" as="sourcePoint" />
            <mxPoint x="1100" y="260" as="targetPoint" />
          </mxGeometry>
        </mxCell>
        <mxCell id="v1GEBAYR39GBqrKkGxhv-44" value="" style="endArrow=classic;html=1;rounded=0;exitX=1;exitY=0.5;exitDx=0;exitDy=0;entryX=0;entryY=0.5;entryDx=0;entryDy=0;" edge="1" parent="1" source="v1GEBAYR39GBqrKkGxhv-16" target="v1GEBAYR39GBqrKkGxhv-18">
          <mxGeometry width="50" height="50" relative="1" as="geometry">
            <mxPoint x="1210" y="400" as="sourcePoint" />
            <mxPoint x="1260" y="350" as="targetPoint" />
          </mxGeometry>
        </mxCell>
        <mxCell id="v1GEBAYR39GBqrKkGxhv-45" value="" style="endArrow=classic;html=1;rounded=0;exitX=1;exitY=0.5;exitDx=0;exitDy=0;" edge="1" parent="1" source="v1GEBAYR39GBqrKkGxhv-17">
          <mxGeometry width="50" height="50" relative="1" as="geometry">
            <mxPoint x="1300" y="520" as="sourcePoint" />
            <mxPoint x="1290" y="300" as="targetPoint" />
          </mxGeometry>
        </mxCell>
        <mxCell id="v1GEBAYR39GBqrKkGxhv-46" value="" style="endArrow=classic;html=1;rounded=0;exitX=1;exitY=0.5;exitDx=0;exitDy=0;entryX=0;entryY=0.5;entryDx=0;entryDy=0;" edge="1" parent="1" source="v1GEBAYR39GBqrKkGxhv-18" target="v1GEBAYR39GBqrKkGxhv-19">
          <mxGeometry width="50" height="50" relative="1" as="geometry">
            <mxPoint x="1370" y="460" as="sourcePoint" />
            <mxPoint x="1420" y="410" as="targetPoint" />
          </mxGeometry>
        </mxCell>
        <mxCell id="v1GEBAYR39GBqrKkGxhv-50" value="" style="endArrow=classic;html=1;rounded=0;edgeStyle=orthogonalEdgeStyle;curved=1;entryX=0;entryY=0;entryDx=0;entryDy=0;exitX=1;exitY=0;exitDx=0;exitDy=0;" edge="1" parent="1" source="v1GEBAYR39GBqrKkGxhv-8" target="v1GEBAYR39GBqrKkGxhv-4">
          <mxGeometry width="50" height="50" relative="1" as="geometry">
            <mxPoint x="850" y="-50" as="sourcePoint" />
            <mxPoint x="1470" y="70" as="targetPoint" />
            <Array as="points">
              <mxPoint x="842" y="-50" />
              <mxPoint x="588" y="-50" />
            </Array>
          </mxGeometry>
        </mxCell>
        <mxCell id="v1GEBAYR39GBqrKkGxhv-55" style="edgeStyle=orthogonalEdgeStyle;rounded=0;orthogonalLoop=1;jettySize=auto;html=1;exitX=1;exitY=1;exitDx=0;exitDy=0;entryX=0;entryY=1;entryDx=0;entryDy=0;curved=1;" edge="1" parent="1" source="v1GEBAYR39GBqrKkGxhv-15" target="v1GEBAYR39GBqrKkGxhv-11">
          <mxGeometry relative="1" as="geometry">
            <mxPoint x="870" y="670" as="sourcePoint" />
            <mxPoint x="598" y="642" as="targetPoint" />
            <Array as="points">
              <mxPoint x="1022" y="770" />
              <mxPoint x="758" y="770" />
            </Array>
          </mxGeometry>
        </mxCell>
        <mxCell id="v1GEBAYR39GBqrKkGxhv-63" value="&lt;div&gt;&lt;font style=&quot;font-size: 24px;&quot;&gt;ε&lt;/font&gt;&lt;/div&gt;" style="edgeLabel;html=1;align=center;verticalAlign=middle;resizable=0;points=[];" vertex="1" connectable="0" parent="1">
          <mxGeometry x="310.0047368421052" y="270" as="geometry">
            <mxPoint x="199" y="-136" as="offset" />
          </mxGeometry>
        </mxCell>
        <mxCell id="v1GEBAYR39GBqrKkGxhv-64" value="&lt;div&gt;&lt;font style=&quot;font-size: 24px;&quot;&gt;ε&lt;/font&gt;&lt;/div&gt;" style="edgeLabel;html=1;align=center;verticalAlign=middle;resizable=0;points=[];" vertex="1" connectable="0" parent="1">
          <mxGeometry x="330.0047368421052" y="280" as="geometry">
            <mxPoint x="202" y="-55" as="offset" />
          </mxGeometry>
        </mxCell>
        <mxCell id="v1GEBAYR39GBqrKkGxhv-65" value="&lt;div&gt;&lt;font style=&quot;font-size: 24px;&quot;&gt;ε&lt;/font&gt;&lt;/div&gt;" style="edgeLabel;html=1;align=center;verticalAlign=middle;resizable=0;points=[];" vertex="1" connectable="0" parent="1">
          <mxGeometry x="347.8947368421052" y="300" as="geometry">
            <mxPoint x="186" y="15" as="offset" />
          </mxGeometry>
        </mxCell>
        <mxCell id="v1GEBAYR39GBqrKkGxhv-66" value="&lt;div&gt;&lt;font style=&quot;font-size: 24px;&quot;&gt;ε&lt;/font&gt;&lt;/div&gt;" style="edgeLabel;html=1;align=center;verticalAlign=middle;resizable=0;points=[];" vertex="1" connectable="0" parent="1">
          <mxGeometry x="357.8947368421052" y="310" as="geometry">
            <mxPoint x="174" y="135" as="offset" />
          </mxGeometry>
        </mxCell>
        <mxCell id="v1GEBAYR39GBqrKkGxhv-67" value="&lt;div&gt;&lt;font style=&quot;font-size: 24px;&quot;&gt;ε&lt;/font&gt;&lt;/div&gt;&lt;div&gt;&lt;font size=&quot;3&quot;&gt;&lt;br&gt;&lt;/font&gt;&lt;/div&gt;" style="edgeLabel;html=1;align=center;verticalAlign=middle;resizable=0;points=[];" vertex="1" connectable="0" parent="1">
          <mxGeometry x="367.8947368421052" y="320" as="geometry">
            <mxPoint x="342" y="-402" as="offset" />
          </mxGeometry>
        </mxCell>
        <mxCell id="v1GEBAYR39GBqrKkGxhv-68" value="&lt;div&gt;&lt;font style=&quot;font-size: 24px;&quot;&gt;ε&lt;/font&gt;&lt;/div&gt;" style="edgeLabel;html=1;align=center;verticalAlign=middle;resizable=0;points=[];" vertex="1" connectable="0" parent="1">
          <mxGeometry x="377.8947368421052" y="340" as="geometry">
            <mxPoint x="343" y="-191" as="offset" />
          </mxGeometry>
        </mxCell>
        <mxCell id="v1GEBAYR39GBqrKkGxhv-69" value="&lt;div&gt;&lt;font style=&quot;font-size: 24px;&quot;&gt;ε&lt;/font&gt;&lt;/div&gt;" style="edgeLabel;html=1;align=center;verticalAlign=middle;resizable=0;points=[];" vertex="1" connectable="0" parent="1">
          <mxGeometry x="400.0047368421052" y="350" as="geometry">
            <mxPoint x="332" y="-34" as="offset" />
          </mxGeometry>
        </mxCell>
        <mxCell id="v1GEBAYR39GBqrKkGxhv-70" value="&lt;div&gt;&lt;font style=&quot;font-size: 24px;&quot;&gt;ε&lt;/font&gt;&lt;/div&gt;" style="edgeLabel;html=1;align=center;verticalAlign=middle;resizable=0;points=[];" vertex="1" connectable="0" parent="1">
          <mxGeometry x="397.8947368421052" y="350" as="geometry">
            <mxPoint x="335" y="190" as="offset" />
          </mxGeometry>
        </mxCell>
        <mxCell id="v1GEBAYR39GBqrKkGxhv-72" value="&#xa;&lt;div&gt;&lt;font style=&quot;font-size: 24px;&quot;&gt;ε&lt;/font&gt;&lt;/div&gt;&#xa;&#xa;" style="text;whiteSpace=wrap;html=1;" vertex="1" parent="1">
          <mxGeometry x="1140" y="107.5" width="40" height="50" as="geometry" />
        </mxCell>
        <mxCell id="v1GEBAYR39GBqrKkGxhv-73" value="&lt;div&gt;&lt;font style=&quot;font-size: 24px;&quot;&gt;ε&lt;/font&gt;&lt;/div&gt;" style="text;whiteSpace=wrap;html=1;" vertex="1" parent="1">
          <mxGeometry x="1120" y="210" width="40" height="50" as="geometry" />
        </mxCell>
        <mxCell id="v1GEBAYR39GBqrKkGxhv-74" value="&lt;div&gt;&lt;font style=&quot;font-size: 24px;&quot;&gt;ε&lt;/font&gt;&lt;/div&gt;" style="text;whiteSpace=wrap;html=1;" vertex="1" parent="1">
          <mxGeometry x="1221" y="315" width="40" height="50" as="geometry" />
        </mxCell>
        <mxCell id="v1GEBAYR39GBqrKkGxhv-75" value="&lt;div&gt;&lt;font style=&quot;font-size: 24px;&quot;&gt;ε&lt;/font&gt;&lt;/div&gt;" style="text;whiteSpace=wrap;html=1;" vertex="1" parent="1">
          <mxGeometry x="1220" y="490" width="40" height="50" as="geometry" />
        </mxCell>
        <mxCell id="v1GEBAYR39GBqrKkGxhv-76" value="&lt;div&gt;&lt;font style=&quot;font-size: 24px;&quot;&gt;ε&lt;/font&gt;&lt;/div&gt;" style="text;whiteSpace=wrap;html=1;" vertex="1" parent="1">
          <mxGeometry x="1460" y="240" width="40" height="50" as="geometry" />
        </mxCell>
        <mxCell id="v1GEBAYR39GBqrKkGxhv-77" value="&lt;div&gt;&lt;font style=&quot;font-size: 24px;&quot;&gt;ε&lt;/font&gt;&lt;/div&gt;" style="text;whiteSpace=wrap;html=1;" vertex="1" parent="1">
          <mxGeometry x="890" y="460" width="40" height="50" as="geometry" />
        </mxCell>
        <mxCell id="v1GEBAYR39GBqrKkGxhv-78" value="&lt;div&gt;&lt;font style=&quot;font-size: 24px;&quot;&gt;ε&lt;/font&gt;&lt;/div&gt;" style="text;whiteSpace=wrap;html=1;" vertex="1" parent="1">
          <mxGeometry x="880" y="760" width="40" height="50" as="geometry" />
        </mxCell>
        <mxCell id="v1GEBAYR39GBqrKkGxhv-87" value="&lt;font style=&quot;font-size: 24px;&quot; face=&quot;Times New Roman&quot;&gt;Hex&lt;/font&gt;" style="edgeLabel;html=1;align=center;verticalAlign=middle;resizable=0;points=[];" vertex="1" connectable="0" parent="1">
          <mxGeometry x="1059.998695652174" y="510" as="geometry">
            <mxPoint y="177" as="offset" />
          </mxGeometry>
        </mxCell>
      </root>
    </mxGraphModel>
  </diagram>
</mxfile>
